<?xml version="1.0" encoding="UTF-8" standalone="no"?>
<!-- Created with Inkscape (http://www.inkscape.org/) -->

<svg
   xmlns:dc="http://purl.org/dc/elements/1.1/"
   xmlns:cc="http://creativecommons.org/ns#"
   xmlns:rdf="http://www.w3.org/1999/02/22-rdf-syntax-ns#"
   xmlns:svg="http://www.w3.org/2000/svg"
   xmlns="http://www.w3.org/2000/svg"
   xmlns:sodipodi="http://sodipodi.sourceforge.net/DTD/sodipodi-0.dtd"
   xmlns:inkscape="http://www.inkscape.org/namespaces/inkscape"
   width="117.60581mm"
   height="35.2061mm"
   viewBox="0 0 117.60581 35.2061"
   version="1.1"
   id="svg8"
   inkscape:version="0.92.2 (30a58d1, 2017-08-07)"
   sodipodi:docname="muta-logo.svg"
   inkscape:export-filename="/home/josef/SW/MutaProps/mutaprops/web_ui/dist/logo.png"
   inkscape:export-xdpi="14.429317"
   inkscape:export-ydpi="14.429317">
  <defs
     id="defs2" />
  <sodipodi:namedview
     id="base"
     pagecolor="#ffffff"
     bordercolor="#666666"
     borderopacity="1.0"
     inkscape:pageopacity="0.0"
     inkscape:pageshadow="2"
     inkscape:zoom="1.4"
     inkscape:cx="228.11003"
     inkscape:cy="-14.781029"
     inkscape:document-units="mm"
     inkscape:current-layer="layer1"
     showgrid="false"
     fit-margin-top="0"
     fit-margin-left="0"
     fit-margin-right="0"
     fit-margin-bottom="0"
     inkscape:window-width="1855"
     inkscape:window-height="1176"
     inkscape:window-x="65"
     inkscape:window-y="24"
     inkscape:window-maximized="1" />
  <metadata
     id="metadata5">
    <rdf:RDF>
      <cc:Work
         rdf:about="">
        <dc:format>image/svg+xml</dc:format>
        <dc:type
           rdf:resource="http://purl.org/dc/dcmitype/StillImage" />
        <dc:title></dc:title>
      </cc:Work>
    </rdf:RDF>
  </metadata>
  <g
     inkscape:label="Layer 1"
     inkscape:groupmode="layer"
     id="layer1"
     transform="translate(-9.0714264,-56.486393)">
    <g
       aria-label="MUTA"
       style="font-style:normal;font-variant:normal;font-weight:normal;font-stretch:normal;font-size:43.82081223px;line-height:1.25;font-family:Chlorinar;-inkscape-font-specification:'Chlorinar, Normal';font-variant-ligatures:normal;font-variant-caps:normal;font-variant-numeric:normal;font-feature-settings:normal;text-align:start;letter-spacing:0px;word-spacing:0px;writing-mode:lr-tb;text-anchor:start;fill:#ffffff;fill-opacity:1;stroke:none;stroke-width:1.09552026"
       id="text12">
      <path
         d="m 17.031066,91.350141 q -1.882925,-0.171175 -3.29512,-1.155431 -2.182481,0 -3.423501,-1.711751 -1.2410186,-1.754544 -1.2410186,-3.680263 0.1283813,-0.984257 0.2995563,-1.925719 0.1711751,-0.941463 0.3423501,-1.92572 0.5991122,-2.139688 1.4121942,-4.66452 0.813081,-2.524832 2.225276,-4.236582 l 0.08559,-0.299557 0.641907,-2.653213 0.34235,-1.412194 q 0.6847,-2.182482 1.882925,-4.66452 1.241019,-2.482038 3.551882,-3.380707 2.439245,-0.727494 5.092458,0.04279 2.653213,0.727494 4.065407,2.995563 l 0.256763,-0.513525 0.34235,-0.513525 q 0.898669,-1.198226 2.567626,-1.754545 1.668957,-0.556318 3.209532,-0.171175 3.937026,-1.283812 5.734364,2.524832 0.641907,1.668957 1.112638,3.551883 0.513525,1.840131 0.641906,3.637469 0.08559,0.256763 0.34235,0.556319 0.256763,0.299557 0.427938,0.513525 1.155432,1.882926 1.754544,4.022614 0.599113,2.139688 1.454988,4.150995 1.155432,2.696007 1.797338,5.69157 0.641907,2.95277 -1.583369,5.434808 -1.968513,1.412194 -3.851439,1.3694 -1.882925,-0.08559 -4.065407,-0.599112 -2.054101,-0.513525 -2.995563,-2.011307 -0.941463,-1.497782 -1.198226,-3.466295 -0.727494,-0.898669 -1.069844,-1.882925 -0.34235,-0.984257 -0.599112,-2.096895 -0.427938,0.727494 -1.668957,1.968513 l -1.626163,0.513526 q -1.840132,-0.128382 -3.081151,-0.599113 -1.241019,-0.470732 -2.268069,-2.096894 -0.513525,2.182481 -1.198226,4.236582 -0.6847,2.011307 -1.925719,3.894232 -1.668957,2.310863 -4.493345,2.310863 z m 3.252326,-28.029914 q -1.668957,2.054101 -2.353657,4.707314 -0.6847,2.61042 -1.283813,5.178045 -0.128381,0.513526 0.171175,1.069844 0.299557,0.513526 0.427938,1.027051 -0.427938,-0.128382 -0.984257,-0.470732 -0.556319,-0.385144 -0.727494,0 -2.39645,4.878489 -3.038357,10.184916 -0.08559,0.513525 0.385144,1.198225 0.513525,0.6847 1.069844,0.556319 0.770288,-0.171175 1.155432,-1.02705 0.385144,-0.898669 0.898669,-1.540576 -0.213969,0.6847 -0.727494,1.454988 -0.470732,0.727494 -0.08559,1.241019 0.470732,0.641907 1.58337,0.984257 1.112637,0.299556 1.626162,-0.34235 1.412195,-1.797338 2.011307,-4.108202 0.641907,-2.353656 1.155432,-4.621726 0.04279,-0.385144 -0.34235,-0.641906 -0.385144,-0.299557 -0.599113,-0.641907 0.470731,0.04279 1.02705,0.256763 0.556319,0.213969 0.855876,-0.08559 0.770287,-0.770287 1.069844,-1.968513 0.299556,-1.198225 0.855875,-2.182482 0.256762,-0.470731 0.727494,-0.855875 0.513525,-0.427937 0.941463,-0.855875 -0.128382,0.556319 -0.684701,1.112638 -0.556318,0.513525 -0.513525,1.155431 0,1.027051 0.770288,2.096895 0.770288,1.02705 1.283813,1.797338 0.299556,0.470731 0.727494,1.3694 0.427937,0.855875 1.882925,0.770288 0.770288,0 1.92572,-2.781595 1.155431,-2.824388 2.781594,-2.952769 0.556319,0 0.813082,1.626163 0.256762,1.583369 0.855875,2.524832 0.770288,1.198225 0.813081,2.39645 0.08559,1.155432 1.069844,2.225276 0.213969,0.256762 0.684701,0.04279 0.470731,-0.213969 0.855875,-0.470732 -0.256763,0.513525 -0.641907,1.069844 -0.34235,0.513525 -0.299556,1.027051 0,0.556319 0.34235,1.3694 0.385144,0.813081 0.898669,0.941463 1.283813,0.34235 3.123945,0.599112 1.840132,0.256763 2.268069,-0.984256 0.727494,-2.139688 -0.427937,-4.450551 -1.112638,-2.310863 -1.754545,-4.493345 -0.513525,-1.540576 -1.02705,-3.166739 -0.513525,-1.626163 -1.540575,-2.867182 -0.34235,-0.385144 -0.941463,0.08559 -0.599113,0.427937 -1.112638,0.556319 0.299556,-0.427938 0.770288,-0.813082 0.513525,-0.427937 0.513525,-0.941463 -0.128381,-1.71175 -0.599113,-3.808644 -0.470731,-2.096895 -1.155431,-3.680264 -0.213969,-0.385144 -0.813082,-0.299556 -0.599112,0.04279 -0.855875,0.34235 -0.470731,0.513525 -0.385144,1.155431 0.128381,0.641907 0.128381,1.326607 -0.385143,-0.641906 -0.599112,-1.668957 -0.171175,-1.02705 -0.813082,-1.02705 -2.011307,0 -2.225275,0.898669 -0.171175,0.855875 -0.941463,2.995563 -0.385144,0.984257 -0.599113,2.182482 -0.171175,1.198226 -0.941463,1.840132 -0.385143,0.34235 -0.556318,-0.599113 -0.171176,-0.984256 -0.641907,-1.112637 -0.427938,-0.08559 -0.770288,0.385143 -0.34235,0.427938 -0.727494,0.684701 0.128382,-0.513526 0.470732,-1.155432 0.34235,-0.641906 0.171175,-1.02705 Q 26.702456,66.658141 26.4029,65.417122 26.103344,64.176103 25.37585,63.57699 24.519974,62.935084 22.722636,62.763908 20.925298,62.54994 20.283392,63.320227 Z m 3.509088,3.680264 q -0.727493,-0.941463 -1.668956,0.04279 -0.898669,0.941462 -1.840132,2.524832 0.513525,-0.984257 0.813081,-2.139688 0.342351,-1.198226 1.24102,-1.840132 0.385143,-0.256763 0.727494,0.427937 0.34235,0.684701 0.727493,0.984257 z"
         style="font-style:normal;font-variant:normal;font-weight:normal;font-stretch:normal;font-size:43.82081223px;font-family:Chlorinar;-inkscape-font-specification:'Chlorinar, Normal';font-variant-ligatures:normal;font-variant-caps:normal;font-variant-numeric:normal;font-feature-settings:normal;text-align:start;writing-mode:lr-tb;text-anchor:start;fill:#ffffff;stroke-width:1.09552026"
         id="path35" />
      <path
         d="m 46.045237,73.719112 q -0.6847,-2.054101 -1.540575,-4.108202 -0.813082,-2.0541 -1.069844,-4.236582 -0.256763,-2.824388 1.3694,-4.022614 1.626163,-1.198225 4.150995,-1.412194 0.556319,0 1.198225,0.04279 0.684701,0.04279 1.24102,0.213969 1.454987,-0.984257 3.337913,-1.369401 1.882926,-0.427937 3.551882,0.256763 0.855876,-1.711751 2.353657,-2.096894 1.497782,-0.385144 3.209532,-0.299557 0.256763,0.04279 0.513525,0.08559 0.299557,0 0.556319,0.04279 0.855876,-0.427938 2.011307,-0.299557 1.155432,0.08559 2.054101,0.34235 2.610419,1.241019 3.166738,3.97982 0.513525,2.567626 1.02705,5.477602 0.513526,2.909976 -0.299556,5.434807 0.08559,0.513526 0.128381,1.069845 0.04279,0.513525 0.128382,1.02705 0.213968,2.738801 -0.684701,5.605983 -0.855875,2.867182 -2.39645,5.092457 -0.470732,0.556319 -1.497782,1.711751 -1.02705,1.155431 -1.583369,1.283813 l -0.04279,0.08559 q -1.626163,1.412194 -3.551882,2.439245 -1.882926,1.02705 -4.065407,1.283812 -3.466295,0.256763 -6.205096,-1.497781 -2.696007,-1.797338 -4.236582,-4.792902 -1.283813,-2.696007 -1.668957,-5.563189 -0.385144,-2.909975 -1.155432,-5.777157 z m 4.364964,-3.894233 q 0.599113,-0.770288 0.813082,-2.096894 0.256762,-1.326607 0.299556,-2.61042 0,-1.412194 -1.198225,-1.668956 -0.770288,-0.128382 -2.139689,0.04279 -1.3694,0.171175 -1.3694,0.898669 0,2.482039 1.412194,5.477602 1.454988,2.95277 1.711751,5.777158 0,0.256762 0.513525,0.299556 0.513525,0.04279 0.599112,0.299556 0.04279,0.299557 -0.385143,0.470732 -0.385144,0.128381 -0.34235,0.385144 0.470731,3.337913 1.583369,6.461858 1.155431,3.123944 5.049664,4.193788 1.968513,0.599113 3.937026,-0.299556 2.011307,-0.898669 3.423501,-2.139688 0.256762,-0.171175 0.171175,-0.599113 -0.08559,-0.470731 0.171175,-0.6847 0.128381,-0.128381 0.385144,0.171175 0.299556,0.299557 0.470731,0.171175 3.937026,-3.380707 4.236582,-9.543009 0,-0.599112 -0.128381,-1.198225 -0.128381,-0.641906 -0.128381,-1.241019 0,-0.6847 -1.155432,-0.256763 -1.155431,0.427938 -2.482038,-0.08559 1.626163,-0.599113 2.567626,-0.470732 0.941463,0.08559 1.198225,-0.898669 0.599113,-2.182481 0.08559,-4.536138 -0.513525,-2.353657 -0.898669,-4.66452 -0.171175,-1.069844 -1.112638,-1.454988 -1.241019,-0.427938 -1.925719,0.256762 -0.684701,0.6847 -0.770288,1.497782 -0.04279,0.770288 -0.941463,1.882925 -0.08559,-1.155431 0.299556,-1.668956 0.427938,-0.556319 0.427938,-1.326607 0,-0.513525 -0.855875,-0.513525 -0.641907,0 -1.412194,-0.04279 -0.770288,-0.08559 -1.069844,0.427938 -0.513525,0.813081 -0.385144,1.882925 0.128381,1.069844 0.213969,1.968513 0.128381,2.054101 0.641906,4.065408 0.513525,2.011307 0.470731,4.065407 -0.04279,2.182482 -0.513525,4.364964 -0.470731,2.139688 -1.069844,4.193789 -0.256762,0.855875 -0.813081,2.268069 -0.513525,1.3694 -0.984257,0.6847 -0.599112,-0.855875 0.427938,-2.011307 1.02705,-1.198225 0.427937,-2.011306 -0.813081,-1.069845 -1.540575,-2.139689 -0.6847,-1.069844 -0.641906,-2.353656 0,-1.155432 0.04279,-2.482039 0.08559,-1.326606 -0.427937,-2.482038 -0.213969,-0.427937 -1.198226,-0.04279 -0.941462,0.34235 -0.727494,-0.04279 0.256763,-0.599113 1.283813,-1.112638 1.027051,-0.513525 1.027051,-2.054101 0,-1.112638 0.04279,-2.310863 0.08559,-1.241019 -0.427937,-2.310863 -0.256763,-0.556319 -0.898669,-0.556319 -0.641907,-0.04279 -1.241019,0.08559 -0.941463,0.256762 -1.797338,0.813081 -0.855876,0.556319 -1.241019,1.3694 -0.427938,0.984257 -0.128382,1.968513 0.299557,0.941463 0,1.882926 -0.171175,0.599113 -0.256762,0.941463 -0.04279,0.299556 -1.326607,0.641906 z"
         style="font-style:normal;font-variant:normal;font-weight:normal;font-stretch:normal;font-size:43.82081223px;font-family:Chlorinar;-inkscape-font-specification:'Chlorinar, Normal';font-variant-ligatures:normal;font-variant-caps:normal;font-variant-numeric:normal;font-feature-settings:normal;text-align:start;writing-mode:lr-tb;text-anchor:start;fill:#ffffff;stroke-width:1.09552026"
         id="path37" />
      <path
         d="m 72.277814,61.565683 0.513526,-0.04279 h 0.727494 q 1.668956,0.171175 3.337913,0 1.668957,-0.171175 3.337913,-0.171175 1.711751,-1.112637 3.765851,-1.540575 2.096895,-0.427938 4.108202,-0.6847 1.668956,-0.299557 3.423501,-0.427938 1.797338,-0.128381 3.594676,0.08559 4.450551,0.855875 6.1623,4.921282 0.55632,3.509089 -0.34235,6.889796 -1.283812,3.166738 -3.851437,3.509088 -2.524832,0.34235 -5.220839,-0.770287 -0.04279,1.155431 -0.213969,2.567625 -0.128381,1.369401 -0.513525,2.396451 l 0.34235,0.427938 0.128381,1.283813 q 0,2.353656 0.128381,4.364963 0.128382,1.968513 -1.155431,4.108201 -1.155432,1.497782 -2.482038,2.011307 -1.283813,0.513525 -2.995564,0.727494 -0.898669,0.128381 -1.882925,0.299556 -0.941463,0.171176 -1.840132,0.171176 -1.754544,-0.04279 -2.824388,-0.599113 -1.069844,-0.599113 -2.182482,-1.968513 -0.984257,-3.081151 -0.299557,-6.461858 0.684701,-3.380707 1.069845,-6.461858 0.128381,-0.385144 0.256762,-0.770288 0.171175,-0.385144 0.171175,-0.770288 -1.626163,0.385144 -3.509088,0.213969 -1.668957,-0.299556 -2.824389,-0.813081 -1.112637,-0.556319 -2.096894,-2.096895 -0.427938,-1.540575 -0.556319,-3.295119 -0.08559,-1.797338 0.04279,-3.423501 0.641906,-2.995564 3.680263,-3.680264 z m 9.543009,20.92615 q 0,0.513525 0.128382,1.02705 0.171175,0.470731 0,0.898669 -0.171175,0.385144 -0.641907,0.556319 -0.427937,0.171175 -0.813081,0.427938 1.112638,-1.112638 1.326606,-2.909976 z m 2.653214,-12.581366 q 0.34235,0.171175 0.770287,0.299556 0.470732,0.08559 0.599113,0.427938 0.128381,0.513525 -0.08559,1.155431 -0.171175,0.599113 -0.171175,1.155432 -0.128381,-1.711751 -1.112637,-3.038357 z m -12.28181,0.385144 q 0,0.470731 0.641906,0.727494 0.641907,0.256762 1.155432,0.34235 1.71175,0.427937 3.551882,-0.213969 1.882926,-0.641907 3.423501,-0.385144 0.770288,0.128381 0.213969,1.71175 -0.513525,1.58337 -0.08559,2.653214 0.08559,0.171175 0.299557,0.34235 0.256762,0.128381 0.427937,0.256762 -0.34235,0.299557 -0.813081,0.556319 -0.470732,0.256763 -0.513525,0.641907 -0.256763,2.39645 -0.813082,5.00687 -0.556319,2.567626 -0.385144,5.178045 0,0.770288 1.112638,1.069844 1.155432,0.256763 1.925719,0 1.155432,-0.299556 2.61042,-0.385144 1.454988,-0.128381 2.225276,-0.6847 1.326606,-1.02705 1.112637,-3.081151 -0.171175,-2.0541 -0.171175,-3.851438 0,-0.385144 -0.427937,-0.599113 -0.385144,-0.256763 -0.641907,-0.599113 0.256763,-0.6847 0.599113,-1.3694 0.34235,-0.6847 0.470731,-1.412194 0.427938,-3.466295 0.34235,-6.761415 0,-0.385144 -0.299556,-0.770287 -0.256762,-0.427938 -0.385144,-0.813082 0.385144,0.256763 0.770288,0.6847 0.385144,0.385144 0.898669,0.385144 1.797338,0.213969 3.765851,1.241019 1.968513,1.027051 3.466295,0.470732 1.069844,-0.385144 1.198225,-2.310863 0.171175,-1.92572 0.171175,-3.123945 -0.04279,-1.02705 -1.069844,-1.840132 -0.984256,-0.855875 -1.968513,-1.069844 -1.925719,-0.385144 -3.937026,-0.08559 -1.968513,0.299556 -3.894232,0.556318 -1.326607,0.213969 -2.781595,0.513526 -1.412194,0.256762 -2.439244,1.069844 -0.556319,0.427937 -0.427938,1.283813 0.128381,0.813081 0.08559,1.497781 -0.171176,-0.556319 -0.128382,-1.412194 0.04279,-0.855875 -0.513525,-0.898669 -1.797338,-0.08559 -3.765851,0.171175 -1.925719,0.213969 -3.808645,-0.04279 -0.34235,0 -0.813081,0.128382 -0.470732,0.08559 -0.513525,0.34235 -0.256763,1.283813 -0.08559,2.439244 0.171175,1.155432 0.213969,2.439245 z"
         style="font-style:normal;font-variant:normal;font-weight:normal;font-stretch:normal;font-size:43.82081223px;font-family:Chlorinar;-inkscape-font-specification:'Chlorinar, Normal';font-variant-ligatures:normal;font-variant-caps:normal;font-variant-numeric:normal;font-feature-settings:normal;text-align:start;writing-mode:lr-tb;text-anchor:start;fill:#ffffff;stroke-width:1.09552026"
         id="path39" />
      <path
         d="m 96.75584,86.428859 q -0.256763,-1.241019 -0.08559,-2.139688 0.213969,-0.898669 0.513526,-2.096895 0.470731,-1.3694 0.6847,-2.909975 0.256762,-1.540576 0.641906,-2.995564 0,-0.128381 0.08559,-0.34235 0.128381,-0.256762 0.128381,-0.470731 -0.213969,-1.583369 0.04279,-3.038357 0.256762,-1.497782 0.556319,-3.038357 0.256762,-2.310864 1.925714,-4.32217 1.71176,-2.054101 3.4663,-3.509089 1.79734,-1.668957 4.1082,-2.610419 2.31086,-0.941463 4.8357,-0.213969 1.06984,0.299556 2.65321,1.155431 1.62616,0.813082 2.18248,1.797338 1.11264,0.599113 2.01131,2.054101 0.89867,1.412194 1.41219,2.524832 0.51353,1.283813 0.94146,2.610419 0.42794,1.326607 0.85588,2.567626 1.15543,3.594676 2.26807,7.574496 1.15543,3.97982 0.38514,7.788465 l -1.02705,1.412194 q -1.45499,0.941463 -2.61042,1.155431 -1.15543,0.213969 -2.78159,-0.213968 -1.3694,0.6847 -3.20953,0.171175 -1.79734,-0.556319 -2.95277,-1.283813 -1.84013,-1.968513 -1.84013,-5.178045 l -0.7275,0.213968 -0.34235,0.04279 q 0,2.738801 -0.47073,5.392014 l -0.72749,1.326607 -1.11264,0.941463 q -1.54058,0.6847 -2.7816,0.727493 -1.24102,0.04279 -2.78159,-0.34235 -2.01131,-0.599112 -3.765852,-1.583369 -1.71175,-1.02705 -2.482038,-3.166738 z m 11.42593,-9.32904 2.52484,0.34235 -2.61042,0.813081 q 0.12838,1.069844 0.85587,1.369401 1.19823,0.556319 2.43925,-0.128382 1.28381,-0.727494 2.52483,-0.470731 l 2.61042,-0.556319 -1.24102,2.353657 q 0.17117,1.241019 0.0856,2.182482 -0.0428,0.941463 0.47073,2.182482 0.12838,0.427937 1.41219,0.727494 1.32661,0.299556 1.62616,-0.08559 0.42794,-0.513525 0.25677,-1.283813 -0.12838,-0.770287 -0.0856,-1.497781 0.34235,0.641906 0.47073,1.497781 0.17118,0.855876 0.85588,1.112638 0.89867,0.427938 1.84013,0.385144 0.98425,-0.08559 1.02705,-1.069844 0.0856,-3.723057 -1.15543,-7.360527 -1.24102,-3.680264 -2.35366,-7.27494 -0.51353,-1.540575 -1.15543,-3.038357 -0.59911,-1.540575 -1.75455,-2.610419 -0.51352,-0.385144 -1.15543,0.128381 -0.6419,0.513525 -1.24102,0.6847 0.29956,-0.427937 0.94147,-0.941463 0.6419,-0.513525 0.25676,-0.941462 -0.89867,-0.855876 -2.22528,-1.369401 -1.3266,-0.513525 -2.56762,-0.34235 -1.58337,0.299557 -2.90998,1.412194 -1.28381,1.112638 -2.43924,2.182482 -0.94147,0.941463 -1.79734,2.054101 -0.85588,1.069844 -0.98426,2.353657 -0.12838,1.02705 -0.42793,2.268069 -0.29956,1.198225 -0.17118,1.754544 -0.25676,0.34235 0.12838,0.556319 0.42794,0.213969 1.06985,0.04279 -0.51353,1.112638 -0.6847,0.855875 -0.17118,-0.256762 -0.51353,0.855875 -0.42794,1.326607 -0.72749,2.738801 -0.25677,1.369401 -0.47074,2.738801 -0.17117,1.112638 -0.72749,2.439244 -0.556318,1.326607 0.29956,2.054101 1.28381,1.069844 3.97982,1.754544 2.696,0.6847 2.696,-0.984256 0.29956,-3.209532 0.29956,-5.991127 0,-2.781594 -0.17117,-5.178045 0,-0.641907 -0.7275,0.427937 -0.6847,1.027051 -1.06984,1.497782 0.38514,-0.855875 0.94146,-1.754544 0.59911,-0.898669 0.94146,-1.797338 0.38515,-1.155432 0.51353,-1.925719 0.12838,-0.813082 0.72749,-1.92572 0.25676,-0.556319 0.85588,-0.941462 0.59911,-0.385144 1.15543,-0.770288 0.42794,-0.34235 0.94146,-0.641907 0.51353,-0.299556 1.02705,-0.641906 -0.38514,0.641906 -1.06984,1.198225 -0.64191,0.513525 -0.42794,1.155432 0.64191,0.128381 1.88293,1.497782 1.24101,1.326606 1.62616,2.567625 0.55632,0.128382 0.77029,0.256763 0.21397,0.128381 0.98425,0.34235 -3.59467,0.385144 -4.57893,0.556319 -0.98426,0.171175 -0.85587,0.213969 0.17117,0.04279 0.72749,0.04279 0.59911,-0.04279 0.17117,-0.04279 -0.89866,0.171175 -1.88292,0.299556 -0.98426,0.08559 -1.45499,0.855875 -0.25676,0.427938 -0.29956,0.813082 z m -4.7501,3.209532 q -0.21397,1.155431 -0.29956,2.268069 -0.0428,1.112638 0.42794,2.011307 -0.25676,-0.256763 -0.6847,-0.513525 -0.38515,-0.256763 -0.38515,-0.641907 0,-0.770287 0.34235,-1.540575 0.34235,-0.813081 0.59912,-1.583369 z"
         style="font-style:normal;font-variant:normal;font-weight:normal;font-stretch:normal;font-size:43.82081223px;font-family:Chlorinar;-inkscape-font-specification:'Chlorinar, Normal';font-variant-ligatures:normal;font-variant-caps:normal;font-variant-numeric:normal;font-feature-settings:normal;text-align:start;writing-mode:lr-tb;text-anchor:start;fill:#ffffff;stroke-width:1.09552026"
         id="path41" />
    </g>
  </g>
</svg>
